<svg xmlns="http://www.w3.org/2000/svg" width="1200" height="720" viewBox="0 0 1200 720" font-family="Segoe UI, Inter, sans-serif">
  <defs>
    <linearGradient id="bg" x1="0" y1="0" x2="1" y2="1">
      <stop offset="0" stop-color="#0d1230"/><stop offset="0.55" stop-color="#0a0e22"/><stop offset="1" stop-color="#070a18"/>
    </linearGradient>
    <radialGradient id="a1" cx="12%" cy="18%" r="60%"><stop offset="0" stop-color="#7c5cff" stop-opacity="0.55"/><stop offset="1" stop-color="#7c5cff" stop-opacity="0"/></radialGradient>
    <radialGradient id="a2" cx="88%" cy="12%" r="55%"><stop offset="0" stop-color="#a855f7" stop-opacity="0.45"/><stop offset="1" stop-color="#a855f7" stop-opacity="0"/></radialGradient>
    <radialGradient id="a3" cx="78%" cy="88%" r="62%"><stop offset="0" stop-color="#2dd4bf" stop-opacity="0.35"/><stop offset="1" stop-color="#2dd4bf" stop-opacity="0"/></radialGradient>
    <linearGradient id="acc" x1="0" y1="0" x2="1" y2="1"><stop offset="0" stop-color="#7c5cff"/><stop offset="1" stop-color="#b06bff"/></linearGradient>
  </defs>
  <rect width="1200" height="720" fill="url(#bg)"/>
  <rect width="1200" height="720" fill="url(#a1)"/><rect width="1200" height="720" fill="url(#a2)"/><rect width="1200" height="720" fill="url(#a3)"/>
  <rect x="120" y="150" width="300" height="110" rx="24" fill="#ffffff" fill-opacity="0.09" stroke="#ffffff" stroke-opacity="0.16"/><rect x="150" y="180" width="120" height="26" rx="8" fill="#ffffff" fill-opacity="0.5"/><rect x="450" y="150" width="300" height="110" rx="24" fill="#ffffff" fill-opacity="0.09" stroke="#ffffff" stroke-opacity="0.16"/><rect x="480" y="180" width="120" height="26" rx="8" fill="#ffffff" fill-opacity="0.5"/><rect x="780" y="150" width="300" height="110" rx="24" fill="#ffffff" fill-opacity="0.09" stroke="#ffffff" stroke-opacity="0.16"/><rect x="810" y="180" width="120" height="26" rx="8" fill="#ffffff" fill-opacity="0.5"/><rect x="120" y="300" width="960" height="320" rx="24" fill="#ffffff" fill-opacity="0.09" stroke="#ffffff" stroke-opacity="0.16"/><rect x="150" y="330" width="900" height="18" rx="8" fill="#ffffff" fill-opacity="0.35"/><rect x="150" y="380" width="900" height="16" rx="8" fill="#ffffff" fill-opacity="0.18"/><rect x="150" y="420" width="900" height="16" rx="8" fill="#ffffff" fill-opacity="0.18"/><rect x="150" y="460" width="900" height="16" rx="8" fill="#ffffff" fill-opacity="0.18"/><rect x="150" y="500" width="900" height="16" rx="8" fill="#ffffff" fill-opacity="0.18"/><rect x="150" y="540" width="900" height="16" rx="8" fill="#ffffff" fill-opacity="0.18"/>
  <g opacity="0.85">
    <rect x="40" y="40" width="220" height="46" rx="14" fill="#ffffff" fill-opacity="0.09" stroke="#ffffff" stroke-opacity="0.16"/>
    <rect x="54" y="52" width="22" height="22" rx="7" fill="url(#acc)"/>
    <text x="88" y="69" fill="#f5f7ff" font-size="20" font-weight="700">CityCab</text>
  </g>
  <text x="600" y="660" text-anchor="middle" fill="#c3c9e0" font-size="22" font-weight="600">Admin dashboard</text>
  <text x="600" y="690" text-anchor="middle" fill="#8b91ad" font-size="15">Fleet stats and bookings table — replace with a real screenshot</text>
</svg>