<svg xmlns="http://www.w3.org/2000/svg" width="1200" height="720" viewBox="0 0 1200 720" font-family="Segoe UI, Inter, sans-serif">
  <defs>
    <linearGradient id="bg" x1="0" y1="0" x2="1" y2="1">
      <stop offset="0" stop-color="#0d1230"/><stop offset="0.55" stop-color="#0a0e22"/><stop offset="1" stop-color="#070a18"/>
    </linearGradient>
    <radialGradient id="a1" cx="12%" cy="18%" r="60%"><stop offset="0" stop-color="#7c5cff" stop-opacity="0.55"/><stop offset="1" stop-color="#7c5cff" stop-opacity="0"/></radialGradient>
    <radialGradient id="a2" cx="88%" cy="12%" r="55%"><stop offset="0" stop-color="#a855f7" stop-opacity="0.45"/><stop offset="1" stop-color="#a855f7" stop-opacity="0"/></radialGradient>
    <radialGradient id="a3" cx="78%" cy="88%" r="62%"><stop offset="0" stop-color="#2dd4bf" stop-opacity="0.35"/><stop offset="1" stop-color="#2dd4bf" stop-opacity="0"/></radialGradient>
    <linearGradient id="acc" x1="0" y1="0" x2="1" y2="1"><stop offset="0" stop-color="#7c5cff"/><stop offset="1" stop-color="#b06bff"/></linearGradient>
  </defs>
  <rect width="1200" height="720" fill="url(#bg)"/>
  <rect width="1200" height="720" fill="url(#a1)"/><rect width="1200" height="720" fill="url(#a2)"/><rect width="1200" height="720" fill="url(#a3)"/>
  <rect x="60" y="150" width="500" height="470" rx="24" fill="#ffffff" fill-opacity="0.09" stroke="#ffffff" stroke-opacity="0.16"/><rect x="90" y="190" width="220" height="22" rx="8" fill="#ffffff" fill-opacity="0.5"/><rect x="90" y="250" width="440" height="16" rx="8" fill="#ffffff" fill-opacity="0.18"/><rect x="90" y="310" width="440" height="16" rx="8" fill="#ffffff" fill-opacity="0.18"/><rect x="90" y="370" width="440" height="16" rx="8" fill="#ffffff" fill-opacity="0.18"/><rect x="90" y="440" width="300" height="48" rx="14" fill="url(#acc)"/><rect x="600" y="150" width="540" height="470" rx="24" fill="#ffffff" fill-opacity="0.09" stroke="#ffffff" stroke-opacity="0.16"/><rect x="620" y="170" width="500" height="430" rx="16" fill="#0d1230"/><path d="M 660 520 L 760 380 L 860 440 L 980 300 L 1080 360" stroke="#b06bff" stroke-width="6" fill="none" stroke-linecap="round"/><circle cx="660" cy="520" r="10" fill="#34d399"/><circle cx="1080" cy="360" r="10" fill="#fb7185"/>
  <g opacity="0.85">
    <rect x="40" y="40" width="220" height="46" rx="14" fill="#ffffff" fill-opacity="0.09" stroke="#ffffff" stroke-opacity="0.16"/>
    <rect x="54" y="52" width="22" height="22" rx="7" fill="url(#acc)"/>
    <text x="88" y="69" fill="#f5f7ff" font-size="20" font-weight="700">CityCab</text>
  </g>
  <text x="600" y="660" text-anchor="middle" fill="#c3c9e0" font-size="22" font-weight="600">Book a ride</text>
  <text x="600" y="690" text-anchor="middle" fill="#8b91ad" font-size="15">Two-panel booking with live map — replace with a real screenshot</text>
</svg>