<svg xmlns="http://www.w3.org/2000/svg" width="1200" height="720" viewBox="0 0 1200 720" font-family="Segoe UI, Inter, sans-serif">
  <defs>
    <linearGradient id="bg" x1="0" y1="0" x2="1" y2="1">
      <stop offset="0" stop-color="#0d1230"/><stop offset="0.55" stop-color="#0a0e22"/><stop offset="1" stop-color="#070a18"/>
    </linearGradient>
    <radialGradient id="a1" cx="12%" cy="18%" r="60%"><stop offset="0" stop-color="#7c5cff" stop-opacity="0.55"/><stop offset="1" stop-color="#7c5cff" stop-opacity="0"/></radialGradient>
    <radialGradient id="a2" cx="88%" cy="12%" r="55%"><stop offset="0" stop-color="#a855f7" stop-opacity="0.45"/><stop offset="1" stop-color="#a855f7" stop-opacity="0"/></radialGradient>
    <radialGradient id="a3" cx="78%" cy="88%" r="62%"><stop offset="0" stop-color="#2dd4bf" stop-opacity="0.35"/><stop offset="1" stop-color="#2dd4bf" stop-opacity="0"/></radialGradient>
    <linearGradient id="acc" x1="0" y1="0" x2="1" y2="1"><stop offset="0" stop-color="#7c5cff"/><stop offset="1" stop-color="#b06bff"/></linearGradient>
  </defs>
  <rect width="1200" height="720" fill="url(#bg)"/>
  <rect width="1200" height="720" fill="url(#a1)"/><rect width="1200" height="720" fill="url(#a2)"/><rect width="1200" height="720" fill="url(#a3)"/>
  <rect x="120" y="160" width="960" height="90" rx="24" fill="#ffffff" fill-opacity="0.09" stroke="#ffffff" stroke-opacity="0.16"/><rect x="160" y="190" width="300" height="20" rx="8" fill="#ffffff" fill-opacity="0.5"/><rect x="940" y="185" width="110" height="40" rx="14" fill="url(#acc)"/><rect x="120" y="270" width="960" height="90" rx="24" fill="#ffffff" fill-opacity="0.09" stroke="#ffffff" stroke-opacity="0.16"/><rect x="160" y="300" width="340" height="20" rx="8" fill="#ffffff" fill-opacity="0.5"/><rect x="940" y="295" width="110" height="40" rx="20" fill="#34d399" fill-opacity="0.25"/><rect x="120" y="380" width="960" height="90" rx="24" fill="#ffffff" fill-opacity="0.09" stroke="#ffffff" stroke-opacity="0.16"/><rect x="160" y="410" width="260" height="20" rx="8" fill="#ffffff" fill-opacity="0.5"/><rect x="940" y="405" width="110" height="40" rx="20" fill="#fb7185" fill-opacity="0.25"/>
  <g opacity="0.85">
    <rect x="40" y="40" width="220" height="46" rx="14" fill="#ffffff" fill-opacity="0.09" stroke="#ffffff" stroke-opacity="0.16"/>
    <rect x="54" y="52" width="22" height="22" rx="7" fill="url(#acc)"/>
    <text x="88" y="69" fill="#f5f7ff" font-size="20" font-weight="700">CityCab</text>
  </g>
  <text x="600" y="660" text-anchor="middle" fill="#c3c9e0" font-size="22" font-weight="600">Ride history</text>
  <text x="600" y="690" text-anchor="middle" fill="#8b91ad" font-size="15">Ride cards with status badges — replace with a real screenshot</text>
</svg>